<?xml version="1.0" standalone="no"?>
<!DOCTYPE svg PUBLIC "-//W3C//DTD SVG 20010904//EN"
 "http://www.w3.org/TR/2001/REC-SVG-20010904/DTD/svg10.dtd">
<svg version="1.0" xmlns="http://www.w3.org/2000/svg"
 width="700.000000pt" height="700.000000pt" viewBox="0 0 700.000000 700.000000"
 preserveAspectRatio="xMidYMid meet">
<metadata>
Created by potrace 1.11, written by Peter Selinger 2001-2013
</metadata>
<g transform="translate(0.000000,700.000000) scale(0.100000,-0.100000)"
fill="#000000" stroke="none">
<path d="M2647 6966 c-20 -6 -53 -23 -71 -38 -19 -15 -140 -169 -271 -343
l-236 -315 -52 -1 c-29 0 -90 -2 -137 -4 -47 -2 -157 -6 -245 -10 -397 -15
-401 -15 -466 -66 -63 -50 -67 -62 -124 -419 -20 -124 -38 -238 -41 -255 -3
-16 -7 -41 -9 -55 -2 -14 -6 -38 -8 -55 -3 -16 -8 -48 -12 -70 -6 -38 -11 -43
-93 -89 -48 -27 -123 -70 -167 -96 -44 -26 -164 -96 -268 -155 -170 -99 -190
-114 -220 -159 -56 -88 -54 -102 92 -537 l127 -379 -204 -323 c-113 -177 -214
-342 -224 -366 -16 -33 -19 -56 -14 -97 10 -95 -2 -80 322 -391 271 -259 299
-287 297 -293 -1 -3 -4 -48 -8 -100 -4 -52 -8 -111 -10 -130 -2 -19 -6 -78
-10 -130 -3 -52 -8 -102 -10 -110 -7 -29 -19 -225 -19 -300 1 -89 15 -122 76
-174 35 -30 74 -48 133 -62 53 -11 681 -197 686 -202 3 -4 41 -90 84 -192 42
-102 83 -198 91 -215 7 -16 40 -94 73 -173 70 -166 87 -193 145 -227 60 -35
108 -37 238 -10 62 13 127 25 143 28 17 3 64 13 105 21 41 9 98 21 125 26 28
6 59 12 70 15 164 36 229 45 245 33 18 -13 174 -140 290 -236 89 -73 93 -77
195 -160 50 -40 97 -78 105 -85 29 -24 95 -44 140 -42 59 3 107 29 201 107 41
35 95 79 119 98 24 19 111 91 194 159 83 68 165 135 183 148 l32 25 78 -16
c43 -9 87 -18 98 -20 11 -3 108 -23 215 -45 107 -22 237 -48 287 -59 116 -24
171 -21 229 13 53 31 80 70 128 185 19 47 87 206 150 355 125 291 112 273 211
300 28 7 154 43 280 80 447 129 444 128 495 209 19 31 24 54 24 105 1 61 -10
229 -19 311 -2 19 -7 76 -11 125 -4 50 -8 106 -10 125 -1 19 -6 75 -9 124 -3
49 -7 92 -8 96 -1 3 18 26 43 50 250 240 442 424 485 466 63 61 84 99 91 162
10 81 18 66 -295 559 l-147 232 128 383 c118 351 128 387 123 436 -9 89 -45
139 -136 190 -30 16 -89 51 -132 76 -43 25 -82 46 -87 46 -6 0 -10 4 -10 9 0
5 -6 11 -13 13 -8 2 -100 53 -205 113 l-191 110 -11 70 c-6 39 -13 81 -16 95
-5 33 -21 135 -29 185 -3 22 -8 51 -10 65 -26 157 -35 210 -39 240 -22 144
-39 188 -93 237 -58 52 -82 55 -478 69 -104 4 -212 8 -240 9 -27 1 -80 3 -117
4 l-68 1 -226 303 c-257 342 -264 351 -319 379 -65 34 -135 29 -230 -17 -44
-21 -116 -55 -160 -75 -44 -21 -134 -63 -200 -95 -259 -123 -284 -135 -294
-135 -9 0 -75 30 -301 138 -442 210 -422 201 -471 206 -24 2 -61 -2 -82 -8z
m2028 -2110 c19 -8 69 -39 112 -69 43 -29 116 -80 163 -112 110 -74 138 -101
161 -150 30 -65 19 -156 -24 -210 -4 -5 -355 -530 -778 -1165 -482 -722 -787
-1170 -814 -1196 -107 -101 -230 -108 -366 -23 -40 25 -306 291 -1070 1069
-86 88 -164 176 -174 197 -22 45 -23 115 -2 164 19 47 327 362 375 385 20 9
55 18 77 20 73 4 118 -26 268 -179 331 -337 620 -628 622 -625 4 5 970 1453
980 1469 51 83 233 350 254 373 54 59 145 81 216 52z"/>
</g>
</svg>
